<?xml version="1.0" encoding="UTF-8" standalone="no"?>
<!-- Created with Inkscape (http://www.inkscape.org/) -->

<svg
   xmlns:dc="http://purl.org/dc/elements/1.1/"
   xmlns:cc="http://creativecommons.org/ns#"
   xmlns:rdf="http://www.w3.org/1999/02/22-rdf-syntax-ns#"
   xmlns:svg="http://www.w3.org/2000/svg"
   xmlns="http://www.w3.org/2000/svg"
   xmlns:xlink="http://www.w3.org/1999/xlink"
   xmlns:sodipodi="http://sodipodi.sourceforge.net/DTD/sodipodi-0.dtd"
   xmlns:inkscape="http://www.inkscape.org/namespaces/inkscape"
   width="24"
   height="24"
   id="svg2"
   version="1.1"
   inkscape:version="0.48.2 r9819"
   sodipodi:docname="hotot_qt.svg">
  <defs
     id="defs4">
    <linearGradient
       id="linearGradient7155">
      <stop
         style="stop-color:#ffffff;stop-opacity:1;"
         offset="0"
         id="stop7157" />
      <stop
         id="stop7165"
         offset="0.37"
         style="stop-color:#ffffff;stop-opacity:0.39215687;" />
      <stop
         id="stop7163"
         offset="0.37"
         style="stop-color:#ffffff;stop-opacity:0.39215687;" />
      <stop
         style="stop-color:#ffffff;stop-opacity:1;"
         offset="1"
         id="stop7159" />
    </linearGradient>
    <linearGradient
       id="linearGradient7145">
      <stop
         style="stop-color:#000000;stop-opacity:1;"
         offset="0"
         id="stop7147" />
      <stop
         style="stop-color:#000000;stop-opacity:0;"
         offset="1"
         id="stop7149" />
    </linearGradient>
    <linearGradient
       inkscape:collect="always"
       xlink:href="#linearGradient7155"
       id="linearGradient7161"
       x1="4.898191"
       y1="32.279556"
       x2="60.204044"
       y2="32.279556"
       gradientUnits="userSpaceOnUse" />
    <linearGradient
       inkscape:collect="always"
       xlink:href="#linearGradient7155"
       id="linearGradient7183"
       x1="5.7746325"
       y1="31.331257"
       x2="59.346062"
       y2="31.331257"
       gradientUnits="userSpaceOnUse"
       gradientTransform="translate(470.85715,707.80859)" />
    <linearGradient
       inkscape:collect="always"
       xlink:href="#linearGradient7155"
       id="linearGradient3003"
       gradientUnits="userSpaceOnUse"
       gradientTransform="translate(470.85715,707.80859)"
       x1="5.7746325"
       y1="31.331257"
       x2="59.346062"
       y2="31.331257" />
    <linearGradient
       inkscape:collect="always"
       xlink:href="#linearGradient7155"
       id="linearGradient3011"
       gradientUnits="userSpaceOnUse"
       gradientTransform="translate(470.85715,707.80859)"
       x1="5.7746325"
       y1="31.331257"
       x2="59.346062"
       y2="31.331257" />
    <linearGradient
       inkscape:collect="always"
       xlink:href="#linearGradient7155"
       id="linearGradient3258"
       gradientUnits="userSpaceOnUse"
       gradientTransform="matrix(0.375,0,0,0.375,368.35715,750.65458)"
       x1="5.7746325"
       y1="31.331257"
       x2="59.346062"
       y2="31.331257" />
    <linearGradient
       inkscape:collect="always"
       xlink:href="#linearGradient7155"
       id="linearGradient4054"
       x1="473.52414"
       y1="760.93457"
       x2="492.18915"
       y2="760.93457"
       gradientUnits="userSpaceOnUse" />
    <linearGradient
       inkscape:collect="always"
       xlink:href="#linearGradient7155"
       id="linearGradient4085"
       gradientUnits="userSpaceOnUse"
       x1="473.52414"
       y1="760.93457"
       x2="492.18915"
       y2="760.93457"
       gradientTransform="translate(-470.85715,-748.9336)" />
    <linearGradient
       inkscape:collect="always"
       xlink:href="#linearGradient7155"
       id="linearGradient4091"
       gradientUnits="userSpaceOnUse"
       gradientTransform="translate(-470.85715,-748.9336)"
       x1="473.52414"
       y1="760.93457"
       x2="492.18915"
       y2="760.93457" />
    <linearGradient
       inkscape:collect="always"
       xlink:href="#linearGradient7155-3"
       id="linearGradient4091-6"
       gradientUnits="userSpaceOnUse"
       gradientTransform="translate(-470.85715,-748.9336)"
       x1="473.52414"
       y1="760.93457"
       x2="492.18915"
       y2="760.93457" />
    <linearGradient
       id="linearGradient7155-3">
      <stop
         style="stop-color:#ffffff;stop-opacity:1;"
         offset="0"
         id="stop7157-9" />
      <stop
         id="stop7165-0"
         offset="0.37"
         style="stop-color:#ffffff;stop-opacity:0.39215687;" />
      <stop
         id="stop7163-8"
         offset="0.37"
         style="stop-color:#ffffff;stop-opacity:0.39215687;" />
      <stop
         style="stop-color:#ffffff;stop-opacity:1;"
         offset="1"
         id="stop7159-3" />
    </linearGradient>
    <linearGradient
       inkscape:collect="always"
       xlink:href="#linearGradient7155-3"
       id="linearGradient4183"
       gradientUnits="userSpaceOnUse"
       gradientTransform="translate(-35.67545,-5.80393)"
       x1="473.52414"
       y1="760.93457"
       x2="492.18915"
       y2="760.93457" />
    <linearGradient
       inkscape:collect="always"
       xlink:href="#linearGradient7155-7"
       id="linearGradient4091-1"
       gradientUnits="userSpaceOnUse"
       gradientTransform="translate(-470.85715,-748.9336)"
       x1="473.52414"
       y1="760.93457"
       x2="492.18915"
       y2="760.93457" />
    <linearGradient
       id="linearGradient7155-7">
      <stop
         style="stop-color:#ffffff;stop-opacity:1;"
         offset="0"
         id="stop7157-91" />
      <stop
         id="stop7165-03"
         offset="0.37"
         style="stop-color:#ffffff;stop-opacity:0.39215687;" />
      <stop
         id="stop7163-5"
         offset="0.37"
         style="stop-color:#ffffff;stop-opacity:0.39215687;" />
      <stop
         style="stop-color:#ffffff;stop-opacity:1;"
         offset="1"
         id="stop7159-9" />
    </linearGradient>
    <linearGradient
       inkscape:collect="always"
       xlink:href="#linearGradient7155-7"
       id="linearGradient4765"
       gradientUnits="userSpaceOnUse"
       gradientTransform="translate(-470.85715,-748.9336)"
       x1="473.52414"
       y1="760.93457"
       x2="492.18915"
       y2="760.93457" />
    <linearGradient
       inkscape:collect="always"
       xlink:href="#linearGradient7155-3"
       id="linearGradient4817"
       gradientUnits="userSpaceOnUse"
       gradientTransform="translate(-506.5326,-754.73753)"
       x1="473.52414"
       y1="760.93457"
       x2="492.18915"
       y2="760.93457" />
    <linearGradient
       inkscape:collect="always"
       xlink:href="#linearGradient7155-3"
       id="linearGradient4820"
       gradientUnits="userSpaceOnUse"
       gradientTransform="translate(-506.5326,-754.73753)"
       x1="473.52414"
       y1="760.93457"
       x2="492.18915"
       y2="760.93457" />
    <linearGradient
       inkscape:collect="always"
       xlink:href="#linearGradient7155-37"
       id="linearGradient4091-3"
       gradientUnits="userSpaceOnUse"
       gradientTransform="translate(-470.85715,-748.9336)"
       x1="473.52414"
       y1="760.93457"
       x2="492.18915"
       y2="760.93457" />
    <linearGradient
       id="linearGradient7155-37">
      <stop
         style="stop-color:#ffffff;stop-opacity:1;"
         offset="0"
         id="stop7157-94" />
      <stop
         id="stop7165-9"
         offset="0.37"
         style="stop-color:#ffffff;stop-opacity:0.39215687;" />
      <stop
         id="stop7163-9"
         offset="0.37"
         style="stop-color:#ffffff;stop-opacity:0.39215687;" />
      <stop
         style="stop-color:#ffffff;stop-opacity:1;"
         offset="1"
         id="stop7159-1" />
    </linearGradient>
    <linearGradient
       inkscape:collect="always"
       xlink:href="#linearGradient7155-3"
       id="linearGradient4922"
       gradientUnits="userSpaceOnUse"
       gradientTransform="translate(-506.5326,-754.73753)"
       x1="473.52414"
       y1="760.93457"
       x2="492.18915"
       y2="760.93457" />
  </defs>
  <sodipodi:namedview
     id="base"
     pagecolor="#969494"
     bordercolor="#666666"
     borderopacity="1.0"
     inkscape:pageopacity="1"
     inkscape:pageshadow="2"
     inkscape:zoom="7.9195959"
     inkscape:cx="-7.9488838"
     inkscape:cy="19.745549"
     inkscape:document-units="px"
     inkscape:current-layer="layer1"
     showgrid="false"
     fit-margin-top="0"
     fit-margin-left="0"
     fit-margin-right="0"
     fit-margin-bottom="0"
     inkscape:window-width="1366"
     inkscape:window-height="718"
     inkscape:window-x="-2"
     inkscape:window-y="-3"
     inkscape:window-maximized="1" />
  <metadata
     id="metadata7">
    <rdf:RDF>
      <cc:Work
         rdf:about="">
        <dc:format>image/svg+xml</dc:format>
        <dc:type
           rdf:resource="http://purl.org/dc/dcmitype/StillImage" />
        <dc:title />
      </cc:Work>
    </rdf:RDF>
  </metadata>
  <g
     inkscape:label="Layer 1"
     inkscape:groupmode="layer"
     id="layer1"
     transform="translate(-470.85715,-748.9336)">
    <g
       id="hotot_qt-active"
       transform="translate(-42.0476,-0.12626956)">
      <rect
         ry="0"
         rx="0"
         y="748.93359"
         x="470.85715"
         height="24"
         width="24"
         id="rect4303"
         style="opacity:0.01000001;fill:#b7b7b7;fill-opacity:0.00392157;stroke:none" />
      <path
         id="path5"
         transform="translate(470.85715,748.9336)"
         d="m 4.75,4.96875 c -1.145,0 -2.09375,0.94875 -2.09375,2.09375 0,1.011 0.7295,1.84825 1.6875,2.03125 l 1.5,3.75 C 4.81975,14.61075 4.5,16.79325 4.5,19.03125 l 15.40625,0 c 0,-2.248 -0.662,-4.44975 -1.75,-6.21875 l 1.5,-3.71875 c 0.957,-0.185 1.6875,-1.02025 1.6875,-2.03125 0,-1.145 -0.94975,-2.09375 -2.09375,-2.09375 -1.146,0 -2.0625,0.94875 -2.0625,2.09375 0,0.168 0.0245,0.31175 0.0625,0.46875 L 14.875,9.5625 c -0.914,-0.499 -1.9045,-0.78125 -2.9375,-0.78125 -1.006,0 -1.96975,0.273 -2.84375,0.75 l -2.34375,-2 C 6.788,7.37525 6.8125,7.2305 6.8125,7.0625 6.8125,5.9175 5.895,4.96875 4.75,4.96875 z m 4.75,6.1875 c 1.634,0 2.9375,1.5345 2.9375,3.4375 0,1.903 -1.3035,3.4375 -2.9375,3.4375 -1.633,0 -2.96875,-1.5345 -2.96875,-3.4375 0,-1.903 1.33475,-3.4375 2.96875,-3.4375 z m 5.625,0.46875 c 1.419,0 2.5625,1.33375 2.5625,2.96875 0,1.635 -1.1435,2.96875 -2.5625,2.96875 -1.419,0 -2.59375,-1.33375 -2.59375,-2.96875 0,-1.635 1.17475,-2.96875 2.59375,-2.96875 z"
         style="fill:url(#linearGradient4091);fill-opacity:1;fill-rule:evenodd;stroke:none"
         inkscape:connector-curvature="0" />
      <path
         id="path9"
         d="m 490.11615,753.9151 c 1.145,0 2.073,0.928 2.073,2.073 0,1.011 -0.725,1.851 -1.683,2.034 l -1.486,3.735 c 1.088,1.77 1.75,3.948 1.75,6.196 h -15.426 c 0,-2.238 0.334,-4.408 1.358,-6.175 l -1.496,-3.757 c -0.957,-0.183 -1.682,-1.022 -1.682,-2.033 0,-1.145 0.928,-2.073 2.073,-2.073 1.146,0 2.072,0.928 2.072,2.073 0,0.168 -0.024,0.329 -0.062,0.486 l 2.344,1.991 c 0.874,-0.477 1.826,-0.752 2.832,-0.752 1.033,0 2.023,0.287 2.938,0.786 l 2.384,-2.025 c -0.038,-0.157 -0.063,-0.317 -0.063,-0.486 0,-1.145 0.928,-2.073 2.074,-2.073 m 0,-1 c -1.695,0 -3.074,1.378 -3.074,3.073 0,0.025 0,0.051 0.001,0.076 l -1.47,1.249 c -0.909,-0.398 -1.845,-0.6 -2.789,-0.6 -0.912,0 -1.812,0.19 -2.682,0.567 l -1.434,-1.218 c 0,-0.025 10e-4,-0.05 10e-4,-0.075 0,-1.694 -1.378,-3.073 -3.072,-3.073 -1.695,0 -3.073,1.378 -3.073,3.073 0,1.272 0.785,2.393 1.932,2.852 l 1.145,2.874 c -0.844,1.659 -1.256,3.707 -1.256,6.24 0,0.553 0.448,1 1,1 h 15.426 c 0.553,0 1,-0.447 1,-1 0,-2.173 -0.58,-4.383 -1.641,-6.28 l 1.128,-2.834 c 1.147,-0.458 1.932,-1.579 1.932,-2.851 -0.001,-1.695 -1.38,-3.073 -3.074,-3.073 l 0,0 z"
         inkscape:connector-curvature="0"
         style="fill:#000000;fill-opacity:0.39215686" />
      <path
         id="path15-8"
         d="m 480.34315,761.1016 c 1.085,0 1.964,1.098 1.964,2.452 0,1.354 -0.879,2.452 -1.964,2.452 -1.084,0 -1.963,-1.098 -1.963,-2.452 0,-1.354 0.879,-2.452 1.963,-2.452 m 0,-1 c -1.634,0 -2.963,1.549 -2.963,3.452 0,1.903 1.33,3.452 2.963,3.452 1.634,0 2.964,-1.549 2.964,-3.452 0,-1.903 -1.33,-3.452 -2.964,-3.452 l 0,0 z"
         inkscape:connector-curvature="0"
         style="fill:#000000;fill-opacity:0.39215686" />
      <path
         id="path21-5"
         d="m 485.97415,761.5886 c 0.869,0 1.573,0.879 1.573,1.965 0,1.085 -0.704,1.965 -1.573,1.965 -0.869,0 -1.573,-0.88 -1.573,-1.965 0,-1.086 0.704,-1.965 1.573,-1.965 m 0,-1 c -1.419,0 -2.573,1.33 -2.573,2.965 0,1.635 1.154,2.965 2.573,2.965 1.419,0 2.573,-1.33 2.573,-2.965 0,-1.635 -1.154,-2.965 -2.573,-2.965 l 0,0 z"
         inkscape:connector-curvature="0"
         style="fill:#000000;fill-opacity:0.39215686" />
    </g>
    <g
       id="hotot_qt-inactive">
      <rect
         style="opacity:0.01000001;fill:#b7b7b7;fill-opacity:0.00392157;stroke:none"
         id="rect4303-0"
         width="24"
         height="24"
         x="470.85715"
         y="748.93359"
         rx="0"
         ry="0" />
      <g
         transform="translate(35.67545,5.80443)"
         id="g4914">
        <path
           inkscape:connector-curvature="0"
           style="fill:url(#linearGradient4922);fill-opacity:1;fill-rule:evenodd;stroke:none"
           d="m -30.9375,-0.84375 c -1.145,0 -2.09375,0.94875 -2.09375,2.09375 0,1.011 0.7295,1.84825 1.6875,2.03125 l 1.5,3.75 c -1.024,1.767 -1.34375,3.9495 -1.34375,6.1875 l 15.40625,0 c 0,-2.248 -0.662,-4.44975 -1.75,-6.21875 l 1.5,-3.71875 c 0.957,-0.185 1.6875,-1.02025 1.6875,-2.03125 0,-1.145 -0.94975,-2.09375 -2.09375,-2.09375 -1.146,0 -2.0625,0.94875 -2.0625,2.09375 0,0.168 0.0245,0.31175 0.0625,0.46875 L -20.8125,3.75 c -0.914,-0.499 -1.9045,-0.78125 -2.9375,-0.78125 -1.006,0 -1.96975,0.273 -2.84375,0.75 l -2.34375,-2 c 0.038,-0.156 0.0625,-0.30075 0.0625,-0.46875 0,-1.145 -0.9175,-2.09375 -2.0625,-2.09375 z m 2.28125,8.9375 A 0.49297338,0.566 0 0 1 -28.5625,8.125 l 4.6875,0 a 0.49297338,0.566 0 1 1 0,1.09375 l -4.6875,0 a 0.49297338,0.566 0 0 1 -0.125,-1.09375 0.49297338,0.566 0 0 1 0.03125,-0.03125 z m 5.96875,0 a 0.55736536,0.55736536 0 0 1 0.125,0 l 4,0 a 0.56250001,0.56250001 0 0 1 0,1.125 l -4,0 a 0.56596158,0.56596158 0 1 1 -0.125,-1.125 z"
           transform="translate(470.85715,748.9336)"
           id="path5-3" />
        <path
           style="fill:#000000;fill-opacity:0.39215686"
           inkscape:connector-curvature="0"
           d="m 454.4407,748.11117 c 1.145,0 2.073,0.928 2.073,2.073 0,1.011 -0.725,1.851 -1.683,2.034 l -1.486,3.735 c 1.088,1.77 1.75,3.948 1.75,6.196 h -15.426 c 0,-2.238 0.334,-4.408 1.358,-6.175 l -1.496,-3.757 c -0.957,-0.183 -1.682,-1.022 -1.682,-2.033 0,-1.145 0.928,-2.073 2.073,-2.073 1.146,0 2.072,0.928 2.072,2.073 0,0.168 -0.024,0.329 -0.062,0.486 l 2.344,1.991 c 0.874,-0.477 1.826,-0.752 2.832,-0.752 1.033,0 2.023,0.287 2.938,0.786 l 2.384,-2.025 c -0.038,-0.157 -0.063,-0.317 -0.063,-0.486 0,-1.145 0.928,-2.073 2.074,-2.073 m 0,-1 c -1.695,0 -3.074,1.378 -3.074,3.073 0,0.025 0,0.051 0.001,0.076 l -1.47,1.249 c -0.909,-0.398 -1.845,-0.6 -2.789,-0.6 -0.912,0 -1.812,0.19 -2.682,0.567 l -1.434,-1.218 c 0,-0.025 10e-4,-0.05 10e-4,-0.075 0,-1.694 -1.378,-3.073 -3.072,-3.073 -1.695,0 -3.073,1.378 -3.073,3.073 0,1.272 0.785,2.393 1.932,2.852 l 1.145,2.874 c -0.844,1.659 -1.256,3.707 -1.256,6.24 0,0.553 0.448,1 1,1 h 15.426 c 0.553,0 1,-0.447 1,-1 0,-2.173 -0.58,-4.383 -1.641,-6.28 l 1.128,-2.834 c 1.147,-0.458 1.932,-1.579 1.932,-2.851 -0.001,-1.695 -1.38,-3.073 -3.074,-3.073 l 0,0 z"
           id="path9-1" />
        <path
           style="font-size:medium;font-style:normal;font-variant:normal;font-weight:normal;font-stretch:normal;text-indent:0;text-align:start;text-decoration:none;line-height:normal;letter-spacing:normal;word-spacing:normal;text-transform:none;direction:ltr;block-progression:tb;writing-mode:lr-tb;text-anchor:start;baseline-shift:baseline;color:#000000;fill:#000000;fill-opacity:0.39215686;stroke:none;stroke-width:1.01828706px;marker:none;visibility:visible;display:inline;overflow:visible;enable-background:accumulate;font-family:Sans;-inkscape-font-specification:Sans"
           d="m 442.15625,757.04879 a 0.49297338,0.566 0 0 0 0.15127,1.11156 l 4.68945,0 a 0.49297338,0.566 0 1 0 0,-1.11156 l -4.68945,0 a 0.49297338,0.566 0 0 0 -0.15127,0 z"
           id="path4192"
           inkscape:connector-curvature="0" />
        <path
           style="font-size:medium;font-style:normal;font-variant:normal;font-weight:normal;font-stretch:normal;text-indent:0;text-align:start;text-decoration:none;line-height:normal;letter-spacing:normal;word-spacing:normal;text-transform:none;direction:ltr;block-progression:tb;writing-mode:lr-tb;text-anchor:start;baseline-shift:baseline;color:#000000;fill:#000000;fill-opacity:0.39215686;stroke:none;stroke-width:1.11461926px;marker:none;visibility:visible;display:inline;overflow:visible;enable-background:accumulate;font-family:Sans;-inkscape-font-specification:Sans"
           d="m 448.1875,757.04209 a 0.56596157,0.56596157 0 1 0 0.125,1.125 l 4,0 a 0.5625,0.5625 0 0 0 0,-1.125 l -4,0 a 0.55736536,0.55736536 0 0 0 -0.125,0 z"
           id="path4194"
           inkscape:connector-curvature="0" />
      </g>
    </g>
  </g>
</svg>
