<?xml version="1.0" encoding="UTF-8" standalone="no"?>
<!-- Created with Inkscape (http://www.inkscape.org/) -->

<svg
   xmlns:dc="http://purl.org/dc/elements/1.1/"
   xmlns:cc="http://creativecommons.org/ns#"
   xmlns:rdf="http://www.w3.org/1999/02/22-rdf-syntax-ns#"
   xmlns:svg="http://www.w3.org/2000/svg"
   xmlns="http://www.w3.org/2000/svg"
   xmlns:xlink="http://www.w3.org/1999/xlink"
   xmlns:sodipodi="http://sodipodi.sourceforge.net/DTD/sodipodi-0.dtd"
   xmlns:inkscape="http://www.inkscape.org/namespaces/inkscape"
   width="24"
   height="24"
   id="svg2"
   version="1.1"
   inkscape:version="0.48.2 r9819"
   sodipodi:docname="hotot_qt.svg">
  <defs
     id="defs4">
    <linearGradient
       id="linearGradient7155">
      <stop
         style="stop-color:#ffffff;stop-opacity:1;"
         offset="0"
         id="stop7157" />
      <stop
         id="stop7165"
         offset="0.37"
         style="stop-color:#ffffff;stop-opacity:0.39215687;" />
      <stop
         id="stop7163"
         offset="0.37"
         style="stop-color:#ffffff;stop-opacity:0.39215687;" />
      <stop
         style="stop-color:#ffffff;stop-opacity:1;"
         offset="1"
         id="stop7159" />
    </linearGradient>
    <linearGradient
       id="linearGradient7145">
      <stop
         style="stop-color:#000000;stop-opacity:1;"
         offset="0"
         id="stop7147" />
      <stop
         style="stop-color:#000000;stop-opacity:0;"
         offset="1"
         id="stop7149" />
    </linearGradient>
    <linearGradient
       inkscape:collect="always"
       xlink:href="#linearGradient7155"
       id="linearGradient7161"
       x1="4.898191"
       y1="32.279556"
       x2="60.204044"
       y2="32.279556"
       gradientUnits="userSpaceOnUse" />
    <linearGradient
       inkscape:collect="always"
       xlink:href="#linearGradient7155"
       id="linearGradient7183"
       x1="5.7746325"
       y1="31.331257"
       x2="59.346062"
       y2="31.331257"
       gradientUnits="userSpaceOnUse"
       gradientTransform="translate(470.85715,707.80859)" />
    <linearGradient
       inkscape:collect="always"
       xlink:href="#linearGradient7155"
       id="linearGradient3003"
       gradientUnits="userSpaceOnUse"
       gradientTransform="translate(470.85715,707.80859)"
       x1="5.7746325"
       y1="31.331257"
       x2="59.346062"
       y2="31.331257" />
    <linearGradient
       inkscape:collect="always"
       xlink:href="#linearGradient7155"
       id="linearGradient3011"
       gradientUnits="userSpaceOnUse"
       gradientTransform="translate(470.85715,707.80859)"
       x1="5.7746325"
       y1="31.331257"
       x2="59.346062"
       y2="31.331257" />
  </defs>
  <sodipodi:namedview
     id="base"
     pagecolor="#000000"
     bordercolor="#666666"
     borderopacity="1.0"
     inkscape:pageopacity="0"
     inkscape:pageshadow="2"
     inkscape:zoom="2.8"
     inkscape:cx="65.060347"
     inkscape:cy="22.63893"
     inkscape:document-units="px"
     inkscape:current-layer="layer1"
     showgrid="false"
     fit-margin-top="0"
     fit-margin-left="0"
     fit-margin-right="0"
     fit-margin-bottom="0"
     inkscape:window-width="1366"
     inkscape:window-height="718"
     inkscape:window-x="-2"
     inkscape:window-y="-3"
     inkscape:window-maximized="1" />
  <metadata
     id="metadata7">
    <rdf:RDF>
      <cc:Work
         rdf:about="">
        <dc:format>image/svg+xml</dc:format>
        <dc:type
           rdf:resource="http://purl.org/dc/dcmitype/StillImage" />
        <dc:title />
      </cc:Work>
    </rdf:RDF>
  </metadata>
  <g
     inkscape:label="Layer 1"
     inkscape:groupmode="layer"
     id="layer1"
     transform="translate(-470.85715,-748.9336)">
    <g
       id="hotot_qt"
       transform="matrix(0.375,0,0,0.375,294.28572,483.0835)">
      <rect
         ry="0"
         rx="0"
         y="708.93359"
         x="470.85715"
         height="64"
         width="64"
         id="rect4303"
         style="opacity:0.01000001;fill:#b7b7b7;fill-opacity:0.00392157;stroke:none" />
      <path
         inkscape:connector-curvature="0"
         id="path3117"
         d="m 488.85715,711.80859 0,10 -14,0 0,36 12,0 -0.84375,12.625 10.84375,-12.625 35,0 0,-36 -24,0 0,-10 -8,0 0,10 -4,0 0,-10 -7,0 z m 6.5,22.125 c 4.74208,0 8.59375,3.90693 8.59375,8.71875 0,4.81181 -3.85167,8.6875 -8.59375,8.6875 -4.74208,0 -8.59375,-3.87569 -8.59375,-8.6875 0,-4.81182 3.85167,-8.71875 8.59375,-8.71875 z m 18.6875,2 c 3.6263,0 6.5625,2.91219 6.5625,6.46875 0,3.55656 -2.9362,6.4375 -6.5625,6.4375 -3.6263,0 -6.5625,-2.88094 -6.5625,-6.4375 0,-3.55656 2.9362,-6.46875 6.5625,-6.46875 z"
         style="fill:none;stroke:#000000;stroke-width:3;stroke-linecap:butt;stroke-linejoin:round;stroke-miterlimit:4;stroke-opacity:0.39215686;stroke-dasharray:none" />
      <path
         inkscape:connector-curvature="0"
         id="path7167"
         d="m 488.14581,761.16187 c 0.0924,-4.22709 0.0858,-4.26595 -0.79974,-4.72079 -0.59764,-0.30697 -2.51659,-0.46035 -5.80357,-0.46388 l -4.91072,-0.005 0,-16.25 0,-16.25 6.40306,0 c 5.34478,0 6.49582,-0.0928 6.96429,-0.56122 0.44999,-0.45 0.56122,-1.44094 0.56122,-5 l 0,-4.43878 1.75734,0 1.75733,0 0.11767,4.65658 c 0.0924,3.65791 0.23255,4.72905 0.65338,4.99453 0.29464,0.18587 1.62053,0.34041 2.94643,0.34342 3.62192,0.008 3.83928,-0.31499 3.83928,-5.70881 l 0,-4.28572 2.32143,0 2.32143,0 0,4.43878 c 0,3.55906 0.11123,4.55 0.56122,5 0.48677,0.48676 2.07406,0.56122 11.96429,0.56122 l 11.40306,0 0,16.25 0,16.25 -16.40532,0 c -9.02293,0 -16.78748,0.1453 -17.25457,0.32288 -0.46708,0.17759 -2.27076,1.98563 -4.00817,4.01786 -5.04266,5.89837 -4.49734,5.79287 -4.38934,0.84919 z m 11.41946,-9.19907 c 3.80202,-1.60472 6.25179,-5.79687 5.90586,-10.10638 -0.70557,-8.78995 -11.05231,-12.64668 -17.2639,-6.43509 -2.32649,2.32649 -3.16631,4.6272 -2.92353,8.00909 0.51674,7.19825 7.52389,11.3846 14.28157,8.53238 l 0,0 z m 18.56954,-2.68425 c 3.06819,-1.6494 4.67647,-5.23581 3.86492,-8.6187 -1.79836,-7.49642 -12.01825,-8.57175 -15.38416,-1.61871 -1.1323,2.33902 -0.88894,5.63295 0.56838,7.69336 1.36948,1.9362 2.56218,2.79548 4.68621,3.37614 2.15753,0.58983 4.09941,0.3319 6.26465,-0.83209 l 0,0 z"
         style="fill:url(#linearGradient3011);fill-opacity:1;stroke:none" />
    </g>
  </g>
</svg>
