<?xml version="1.0" encoding="UTF-8" standalone="no"?>
<!-- Generator: Adobe Illustrator 15.0.1, SVG Export Plug-In . SVG Version: 6.00 Build 0)  -->

<svg
   xmlns:dc="http://purl.org/dc/elements/1.1/"
   xmlns:cc="http://creativecommons.org/ns#"
   xmlns:rdf="http://www.w3.org/1999/02/22-rdf-syntax-ns#"
   xmlns:svg="http://www.w3.org/2000/svg"
   xmlns="http://www.w3.org/2000/svg"
   xmlns:sodipodi="http://sodipodi.sourceforge.net/DTD/sodipodi-0.dtd"
   xmlns:inkscape="http://www.inkscape.org/namespaces/inkscape"
   version="1.1"
   id="图层_1"
   x="0px"
   y="0px"
   width="24px"
   height="24px"
   viewBox="0 0 24 24"
   enable-background="new 0 0 24 24"
   xml:space="preserve"
   inkscape:version="0.48.1 r9760"
   sodipodi:docname="ic24_hotot_mono_light_blink.svg"><metadata
   id="metadata27"><rdf:RDF><cc:Work
       rdf:about=""><dc:format>image/svg+xml</dc:format><dc:type
         rdf:resource="http://purl.org/dc/dcmitype/StillImage" /></cc:Work></rdf:RDF></metadata><defs
   id="defs25" /><sodipodi:namedview
   pagecolor="#ffffff"
   bordercolor="#666666"
   borderopacity="1"
   objecttolerance="10"
   gridtolerance="10"
   guidetolerance="10"
   inkscape:pageopacity="0"
   inkscape:pageshadow="2"
   inkscape:window-width="640"
   inkscape:window-height="480"
   id="namedview23"
   showgrid="false"
   inkscape:zoom="9.9583333"
   inkscape:cx="12"
   inkscape:cy="12"
   inkscape:window-x="0"
   inkscape:window-y="25"
   inkscape:window-maximized="0"
   inkscape:current-layer="图层_1" />
<g
   id="g3"
   transform="matrix(-1,0,0,1,24.002,0)">
	<path
   clip-rule="evenodd"
   d="m 21.333,7.996 c 0,-1.145 -0.929,-2.073 -2.073,-2.073 -1.146,0 -2.074,0.928 -2.074,2.073 0,0.168 0.025,0.329 0.063,0.486 l -2.384,2.025 C 13.951,10.008 12.96,9.721 11.927,9.721 c -1.006,0 -1.958,0.275 -2.832,0.752 L 6.752,8.481 C 6.79,8.325 6.813,8.164 6.813,7.996 6.813,6.851 5.886,5.923 4.741,5.923 c -1.145,0 -2.073,0.928 -2.073,2.073 0,1.011 0.725,1.851 1.683,2.034 l 1.496,3.757 c -1.024,1.767 -1.358,3.937 -1.358,6.175 h 15.426 c 0,-2.248 -0.662,-4.427 -1.75,-6.196 l 1.486,-3.735 c 0.957,-0.185 1.682,-1.024 1.682,-2.035 z"
   id="path5"
   inkscape:connector-curvature="0"
   style="fill:#eae3d0;fill-rule:evenodd" />
	<g
   enable-background="new    "
   id="g7"
   style="opacity:0.6">
		<path
   d="m 19.26,5.923 c 1.145,0 2.073,0.928 2.073,2.073 0,1.011 -0.725,1.851 -1.683,2.034 l -1.486,3.735 c 1.088,1.77 1.75,3.948 1.75,6.196 H 4.488 c 0,-2.238 0.334,-4.408 1.358,-6.175 L 4.35,10.029 C 3.393,9.846 2.668,9.007 2.668,7.996 c 0,-1.145 0.928,-2.073 2.073,-2.073 1.146,0 2.072,0.928 2.072,2.073 0,0.168 -0.024,0.329 -0.062,0.486 l 2.344,1.991 c 0.874,-0.477 1.826,-0.752 2.832,-0.752 1.033,0 2.023,0.287 2.938,0.786 L 17.249,8.482 C 17.211,8.325 17.186,8.165 17.186,7.996 c 0,-1.145 0.928,-2.073 2.074,-2.073 m 0,-1 c -1.695,0 -3.074,1.378 -3.074,3.073 0,0.025 0,0.051 0.001,0.076 l -1.47,1.249 c -0.909,-0.398 -1.845,-0.6 -2.789,-0.6 -0.912,0 -1.812,0.19 -2.682,0.567 L 7.812,8.07 c 0,-0.025 10e-4,-0.05 10e-4,-0.075 0,-1.694 -1.378,-3.073 -3.072,-3.073 -1.695,0 -3.073,1.378 -3.073,3.073 0,1.272 0.785,2.393 1.932,2.852 l 1.145,2.874 c -0.844,1.659 -1.256,3.707 -1.256,6.24 0,0.553 0.448,1 1,1 h 15.426 c 0.553,0 1,-0.447 1,-1 0,-2.173 -0.58,-4.383 -1.641,-6.28 l 1.128,-2.834 C 21.549,10.389 22.334,9.268 22.334,7.996 22.333,6.301 20.954,4.923 19.26,4.923 l 0,0 z"
   id="path9"
   inkscape:connector-curvature="0"
   style="fill:#3a3935" />
	</g>
	<g
   id="g11">
		<ellipse
   clip-rule="evenodd"
   cx="9.4870005"
   cy="15.536"
   rx="2.4630001"
   ry="2.9519999"
   id="ellipse13"
   sodipodi:cx="9.4870005"
   sodipodi:cy="15.536"
   sodipodi:rx="2.4630001"
   sodipodi:ry="2.9519999"
   style="fill:#4d4d4d;fill-rule:evenodd"
   d="m 11.950001,15.536 c 0,1.630345 -1.102723,2.952 -2.4630005,2.952 -1.3602774,0 -2.4630001,-1.321655 -2.4630001,-2.952 0,-1.630344 1.1027227,-2.952 2.4630001,-2.952 1.3602775,0 2.4630005,1.321656 2.4630005,2.952 z" />
		<path
   d="m 9.487,13.084 c 1.085,0 1.964,1.098 1.964,2.452 0,1.354 -0.879,2.452 -1.964,2.452 -1.084,0 -1.963,-1.098 -1.963,-2.452 0,-1.354 0.879,-2.452 1.963,-2.452 m 0,-1 c -1.634,0 -2.963,1.549 -2.963,3.452 0,1.903 1.33,3.452 2.963,3.452 1.634,0 2.964,-1.549 2.964,-3.452 0,-1.903 -1.33,-3.452 -2.964,-3.452 l 0,0 z"
   id="path15"
   inkscape:connector-curvature="0"
   style="fill:#ffffff" />
	</g>
	<g
   id="g17">
		<ellipse
   clip-rule="evenodd"
   cx="15.118"
   cy="15.536"
   rx="2.073"
   ry="2.4649999"
   id="ellipse19"
   sodipodi:cx="15.118"
   sodipodi:cy="15.536"
   sodipodi:rx="2.073"
   sodipodi:ry="2.4649999"
   style="fill:#4d4d4d;fill-rule:evenodd"
   d="m 17.191,15.536 c 0,1.361382 -0.928114,2.465 -2.073,2.465 -1.144886,0 -2.073,-1.103618 -2.073,-2.465 0,-1.361382 0.928114,-2.465 2.073,-2.465 1.144886,0 2.073,1.103618 2.073,2.465 z" />
		<path
   d="m 15.118,13.571 c 0.869,0 1.573,0.879 1.573,1.965 0,1.085 -0.704,1.965 -1.573,1.965 -0.869,0 -1.573,-0.88 -1.573,-1.965 0,-1.086 0.704,-1.965 1.573,-1.965 m 0,-1 c -1.419,0 -2.573,1.33 -2.573,2.965 0,1.635 1.154,2.965 2.573,2.965 1.419,0 2.573,-1.33 2.573,-2.965 0,-1.635 -1.154,-2.965 -2.573,-2.965 l 0,0 z"
   id="path21"
   inkscape:connector-curvature="0"
   style="fill:#ffffff" />
	</g>
</g>
</svg>