<?xml version="1.0" encoding="utf-8"?>
<!-- Generator: Adobe Illustrator 15.0.1, SVG Export Plug-In . SVG Version: 6.00 Build 0)  -->
<!DOCTYPE svg PUBLIC "-//W3C//DTD SVG 1.1//EN" "http://www.w3.org/Graphics/SVG/1.1/DTD/svg11.dtd">
<svg version="1.1" id="图层_2" xmlns="http://www.w3.org/2000/svg" xmlns:xlink="http://www.w3.org/1999/xlink" x="0px" y="0px"
	 width="24px" height="24px" viewBox="0 0 24 24" enable-background="new 0 0 24 24" xml:space="preserve">
<g>
	<path fill-rule="evenodd" clip-rule="evenodd" fill="#3A3935" d="M21.333,7.996c0-1.145-0.929-2.073-2.073-2.073
		c-1.146,0-2.074,0.928-2.074,2.073c0,0.168,0.025,0.329,0.063,0.486l-2.384,2.025c-0.914-0.499-1.905-0.786-2.938-0.786
		c-1.006,0-1.958,0.275-2.832,0.752L6.752,8.481C6.79,8.325,6.813,8.164,6.813,7.996c0-1.145-0.927-2.073-2.072-2.073
		c-1.145,0-2.073,0.928-2.073,2.073c0,1.011,0.725,1.851,1.683,2.034l1.496,3.757c-1.024,1.767-1.358,3.937-1.358,6.175h15.426
		c0-2.248-0.662-4.427-1.75-6.196l1.486-3.735C20.608,9.846,21.333,9.007,21.333,7.996z"/>
	<g opacity="0.6" enable-background="new    ">
		<g>
			<path fill="#EAE3D0" d="M19.26,5.923c1.145,0,2.073,0.928,2.073,2.073c0,1.011-0.725,1.851-1.683,2.034l-1.486,3.735
				c1.088,1.77,1.75,3.948,1.75,6.196H4.488c0-2.238,0.334-4.408,1.358-6.175l-1.496-3.757C3.393,9.846,2.668,9.007,2.668,7.996
				c0-1.145,0.928-2.073,2.073-2.073c1.146,0,2.072,0.928,2.072,2.073c0,0.168-0.024,0.329-0.062,0.486l2.344,1.991
				c0.874-0.477,1.826-0.752,2.832-0.752c1.033,0,2.023,0.287,2.938,0.786l2.384-2.025c-0.038-0.157-0.063-0.317-0.063-0.486
				C17.186,6.851,18.114,5.923,19.26,5.923 M19.26,4.923c-1.695,0-3.074,1.378-3.074,3.073c0,0.025,0,0.051,0.001,0.076l-1.47,1.249
				c-0.909-0.398-1.845-0.6-2.789-0.6c-0.912,0-1.812,0.19-2.682,0.567L7.812,8.07c0-0.025,0.001-0.05,0.001-0.075
				c0-1.694-1.378-3.073-3.072-3.073c-1.695,0-3.073,1.378-3.073,3.073c0,1.272,0.785,2.393,1.932,2.852l1.145,2.874
				c-0.844,1.659-1.256,3.707-1.256,6.24c0,0.553,0.448,1,1,1h15.426c0.553,0,1-0.447,1-1c0-2.173-0.58-4.383-1.641-6.28
				l1.128-2.834c1.147-0.458,1.932-1.579,1.932-2.851C22.333,6.301,20.954,4.923,19.26,4.923L19.26,4.923z"/>
		</g>
	</g>
	<g>
		<ellipse fill-rule="evenodd" clip-rule="evenodd" fill="#FFFFFF" cx="9.487" cy="15.536" rx="2.463" ry="2.952"/>
		<path fill="#B3B3B3" d="M9.487,13.084c1.085,0,1.964,1.098,1.964,2.452s-0.879,2.452-1.964,2.452
			c-1.084,0-1.963-1.098-1.963-2.452S8.403,13.084,9.487,13.084 M9.487,12.084c-1.634,0-2.963,1.549-2.963,3.452
			s1.33,3.452,2.963,3.452c1.634,0,2.964-1.549,2.964-3.452S11.121,12.084,9.487,12.084L9.487,12.084z"/>
	</g>
	<g>
		<ellipse fill-rule="evenodd" clip-rule="evenodd" fill="#FFFFFF" cx="15.118" cy="15.536" rx="2.073" ry="2.465"/>
		<path fill="#B3B3B3" d="M15.118,13.571c0.869,0,1.573,0.879,1.573,1.965c0,1.085-0.704,1.965-1.573,1.965s-1.573-0.88-1.573-1.965
			C13.545,14.45,14.249,13.571,15.118,13.571 M15.118,12.571c-1.419,0-2.573,1.33-2.573,2.965s1.154,2.965,2.573,2.965
			s2.573-1.33,2.573-2.965S16.537,12.571,15.118,12.571L15.118,12.571z"/>
	</g>
</g>
</svg>
